<?xml version="1.0" encoding="UTF-8" standalone="no"?>
<!-- Created with Inkscape (http://www.inkscape.org/) -->

<svg
   xmlns:dc="http://purl.org/dc/elements/1.1/"
   xmlns:cc="http://creativecommons.org/ns#"
   xmlns:rdf="http://www.w3.org/1999/02/22-rdf-syntax-ns#"
   xmlns:svg="http://www.w3.org/2000/svg"
   xmlns="http://www.w3.org/2000/svg"
   xmlns:sodipodi="http://sodipodi.sourceforge.net/DTD/sodipodi-0.dtd"
   xmlns:inkscape="http://www.inkscape.org/namespaces/inkscape"
   width="210mm"
   height="297mm"
   id="svg2"
   version="1.1"
   inkscape:version="0.48.4 r9939"
   sodipodi:docname="logo.svg">
  <defs
     id="defs4" />
  <sodipodi:namedview
     id="base"
     pagecolor="#ffffff"
     bordercolor="#666666"
     borderopacity="1.0"
     inkscape:pageopacity="0.0"
     inkscape:pageshadow="2"
     inkscape:zoom="5.6568543"
     inkscape:cx="176.39642"
     inkscape:cy="374.70788"
     inkscape:document-units="px"
     inkscape:current-layer="layer1"
     showgrid="false"
     showguides="true"
     inkscape:guide-bbox="true"
     inkscape:window-width="1542"
     inkscape:window-height="864"
     inkscape:window-x="75"
     inkscape:window-y="75"
     inkscape:window-maximized="0">
    <sodipodi:guide
       orientation="0,1"
       position="214.44197,389.57589"
       id="guide3817" />
    <sodipodi:guide
       orientation="0,1"
       position="217.60896,384.03948"
       id="guide3819" />
    <sodipodi:guide
       orientation="0,1"
       position="210.98214,360.53572"
       id="guide3821" />
    <sodipodi:guide
       orientation="0,1"
       position="218.12982,366.02246"
       id="guide3823" />
  </sodipodi:namedview>
  <metadata
     id="metadata7">
    <rdf:RDF>
      <cc:Work
         rdf:about="">
        <dc:format>image/svg+xml</dc:format>
        <dc:type
           rdf:resource="http://purl.org/dc/dcmitype/StillImage" />
        <dc:title></dc:title>
      </cc:Work>
    </rdf:RDF>
  </metadata>
  <g
     inkscape:label="Ebene 1"
     inkscape:groupmode="layer"
     id="layer1">
    <text
       xml:space="preserve"
       style="font-size:40px;font-style:normal;font-variant:normal;font-weight:normal;font-stretch:normal;line-height:125%;letter-spacing:0px;word-spacing:0px;fill:#000000;fill-opacity:1;stroke:none;font-family:Arial;-inkscape-font-specification:Arial"
       x="110.38253"
       y="654.16589"
       id="text2985"
       sodipodi:linespacing="125%"><tspan
         sodipodi:role="line"
         id="tspan2987"
         x="110.38253"
         y="654.16589"
         style="font-style:normal;font-variant:normal;font-weight:bold;font-stretch:normal;fill:#1e477a;fill-opacity:1;font-family:Tahoma;-inkscape-font-specification:Tahoma Bold;letter-spacing:-1.28999997px">ZULSER</tspan></text>
    <path
       sodipodi:nodetypes="cccccccccssscccccccccccsc"
       inkscape:connector-curvature="0"
       id="path3785"
       style="font-size:40px;font-style:normal;font-variant:normal;font-weight:bold;font-stretch:normal;line-height:125%;letter-spacing:-1.28999996px;word-spacing:0px;fill:#1e477a;fill-opacity:1;stroke:none;font-family:Tahoma;-inkscape-font-specification:Tahoma Bold"
       d="m 196.2338,742.73815 -13.4706,0 0,-5.48674 10.60547,0 c 0.41665,0 0.96588,-0.013 1.65039,-0.013 0.70778,0 1.25679,0.013 1.65039,0.013 4.27635,0 4.72861,-3.54048 -1.09375,-5.10058 -0.9896,-0.26041 -2.04754,-0.50781 -3.17383,-0.74219 -1.12631,-0.23437 -2.17774,-0.52082 -3.1543,-0.85938 -2.25261,-0.79425 -3.86719,-1.86196 -4.84375,-3.20312 -0.97656,-1.34113 -1.46484,-3.02082 -1.46484,-5.03906 0,-2.72134 1.15234,-4.92511 3.45703,-6.61133 2.30468,-1.68617 4.14056,-1.99776 5.72862,-1.99777 l 12.66982,0 0,5.53641 -9.39453,0 c -1.50411,0 -1.90158,0 -3.34004,0 -2.14611,0 -2.83319,2.8273 -0.86895,3.96136 0.52734,0.43621 1.54622,0.83009 3.05664,1.18164 0.97655,0.22137 1.91731,0.43621 2.82227,0.64453 0.90493,0.20835 1.87173,0.49481 2.90039,0.85937 2.01821,0.72919 3.51886,1.709 4.50195,2.93946 0.98305,1.23048 1.47459,2.85483 1.47461,4.87304 -2e-5,2.89064 -1.13609,5.21485 -3.4082,6.97266 -2.27215,1.75781 -4.15804,2.0717 -6.30479,2.0717 z" />
    <g
       style="font-size:40px;font-style:normal;font-variant:normal;font-weight:normal;font-stretch:normal;line-height:125%;letter-spacing:0px;word-spacing:0px;fill:#000000;fill-opacity:1;stroke:none;font-family:Arial;-inkscape-font-specification:Arial"
       id="text2985-0">
      <path
         d="m 120.06171,625.27594 -23.066402,0 0,-5.44922 13.378902,-18.08594 -12.675777,0 0,-5.54687 21.582027,0 0,5.54687 -13.35937,17.98828 14.14062,0 z"
         style="font-weight:bold;letter-spacing:-1.28999996px;font-family:Tahoma;-inkscape-font-specification:Tahoma Bold"
         id="path3897" />
      <path
         d="m 134.33812,625.88141 c -3.90626,0 -6.91082,-0.94401 -9.01367,-2.83203 -2.10287,-1.88802 -3.1543,-4.64843 -3.1543,-8.28125 l 0,-18.57422 7.30469,0 0,18.14453 c -1e-5,2.01824 0.38085,3.52214 1.14258,4.51172 0.7617,0.98959 2.00194,1.48438 3.7207,1.48437 1.67967,10e-6 2.91339,-0.47525 3.70117,-1.42578 0.78774,-0.95051 1.18162,-2.47395 1.18164,-4.57031 l 0,-18.14453 7.30469,0 0,18.55469 c -3e-5,3.58073 -1.02542,6.33138 -3.07617,8.25195 -2.05081,1.92057 -5.08791,2.88086 -9.11133,2.88086 z"
         style="font-weight:bold;letter-spacing:-1.28999996px;font-family:Tahoma;-inkscape-font-specification:Tahoma Bold"
         id="path3899" />
      <path
         d="m 170.23562,625.27594 -19.41406,0 0,-29.08203 7.30468,0 0,23.53515 12.10938,0 z"
         style="font-weight:bold;letter-spacing:-1.28999996px;font-family:Tahoma;-inkscape-font-specification:Tahoma Bold"
         id="path3901" />
      <path
         d="m 181.40656,625.80328 c -2.22658,0 -4.18296,-0.21484 -5.86915,-0.64453 -1.6862,-0.42968 -3.25195,-0.96354 -4.69726,-1.60156 l 0,-6.91406 0.66406,0 c 1.45833,1.23698 3.0664,2.1875 4.82422,2.85156 1.7578,0.66407 3.46353,0.9961 5.11719,0.99609 0.41665,10e-6 0.96678,-0.0456 1.65039,-0.13672 0.68358,-0.0911 1.23371,-0.23436 1.65039,-0.42968 0.5078,-0.22135 0.93748,-0.5306 1.28906,-0.92774 0.35155,-0.39713 0.52733,-0.92121 0.52735,-1.57226 -2e-5,-0.72916 -0.28648,-1.32161 -0.85938,-1.77735 -0.57293,-0.45572 -1.25653,-0.78775 -2.05078,-0.99609 -0.9896,-0.26041 -2.04754,-0.5078 -3.17383,-0.74219 -1.12631,-0.23436 -2.17774,-0.52082 -3.1543,-0.85937 -2.25261,-0.79426 -3.86719,-1.86197 -4.84375,-3.20313 -0.97656,-1.34113 -1.46484,-3.02081 -1.46484,-5.03906 0,-2.72133 1.15234,-4.9251 3.45703,-6.61133 2.30468,-1.68617 5.18228,-2.52927 8.63281,-2.5293 1.73176,3e-5 3.45376,0.17582 5.16602,0.52735 1.71222,0.35159 3.24542,0.82685 4.59961,1.42578 l 0,6.64062 -0.64453,0 c -1.08075,-0.92445 -2.39911,-1.7057 -3.95508,-2.34375 -1.55601,-0.63799 -3.15431,-0.957 -4.79492,-0.95703 -0.63804,3e-5 -1.21095,0.0456 -1.71875,0.13672 -0.50783,0.0912 -1.04168,0.26695 -1.60156,0.52735 -0.45574,0.20835 -0.84962,0.5176 -1.18165,0.92773 -0.33204,0.41018 -0.49805,0.86916 -0.49804,1.37695 -1e-5,0.74221 0.26366,1.3314 0.79101,1.76758 0.52734,0.43622 1.54622,0.8301 3.05664,1.18164 0.97655,0.22137 1.91731,0.43622 2.82227,0.64453 0.90493,0.20835 1.87173,0.49481 2.90039,0.85938 2.01821,0.72918 3.51886,1.709 4.50195,2.93945 0.98305,1.23048 1.47459,2.85483 1.47461,4.87305 -2e-5,2.89063 -1.13609,5.21485 -3.4082,6.97265 -2.27215,1.75782 -5.34181,2.63672 -9.20898,2.63672 z"
         style="font-weight:bold;letter-spacing:-1.28999996px;font-family:Tahoma;-inkscape-font-specification:Tahoma Bold"
         id="path3903" />
      <path
         d="m 196.44468,625.27594 0,-29.08203 19.66797,0 0,5.54687 -12.40235,0 0,5.09766 11.42579,0 0,5.54687 -11.42579,0 0,7.34375 12.40235,0 0,5.54688 z"
         style="font-weight:bold;letter-spacing:-1.28999996px;font-family:Tahoma;-inkscape-font-specification:Tahoma Bold"
         id="path3905" />
      <path
         d="m 246.65859,625.27594 -8.90625,0 -8.10547,-10.66406 -2.61718,0 0,10.66406 -7.26563,0 0,-29.08203 11.69922,0 c 1.61457,3e-5 3.02082,0.10094 4.21875,0.30273 1.1979,0.20185 2.30467,0.62178 3.32031,1.25977 1.04165,0.66409 1.86847,1.50719 2.48047,2.5293 0.61195,1.02215 0.91794,2.32098 0.91797,3.89648 -3e-5,2.22658 -0.50133,4.03322 -1.50391,5.41992 -1.00262,1.38673 -2.34377,2.49025 -4.02343,3.31055 z m -11.75781,-20.17578 c -2e-5,-0.72915 -0.13999,-1.3574 -0.41992,-1.88477 -0.27997,-0.52732 -0.74546,-0.93422 -1.39649,-1.2207 -0.45574,-0.19529 -0.96355,-0.31899 -1.52343,-0.37109 -0.55991,-0.0521 -1.25653,-0.0781 -2.08985,-0.0781 l -2.4414,0 0,7.83203 2.08984,0 c 1.01561,2e-5 1.87824,-0.0618 2.58789,-0.18554 0.70962,-0.12369 1.31183,-0.38736 1.80664,-0.79102 0.46873,-0.36457 0.81704,-0.80076 1.04492,-1.30859 0.22785,-0.5078 0.34178,-1.17186 0.3418,-1.99219 z"
         style="font-weight:bold;letter-spacing:-1.28999996px;font-family:Tahoma;-inkscape-font-specification:Tahoma Bold"
         id="path3907" />
    </g>
    <g
       id="g3934"
       inkscape:export-filename="C:\Stonehearth\Game\mods\zulser\logo.png"
       inkscape:export-xdpi="301.59537"
       inkscape:export-ydpi="301.59537">
      <path
         d="m 131.98476,691.86414 -23.0664,0 0,-5.44922 13.3789,-18.08594 -12.67578,0 0,-5.54688 21.58203,0 0,5.54688 -13.35937,17.98828 14.14062,0 z"
         style="font-size:40px;font-style:normal;font-variant:normal;font-weight:bold;font-stretch:normal;line-height:125%;letter-spacing:-1.28999996px;word-spacing:0px;fill:#1e477a;fill-opacity:1;stroke:none;font-family:Tahoma;-inkscape-font-specification:Tahoma Bold"
         id="path3779"
         inkscape:connector-curvature="0" />
      <path
         d="m 146.26117,692.4696 c -3.90626,0 -6.91082,-0.94401 -9.01367,-2.83203 -2.10287,-1.88801 -3.1543,-4.64843 -3.1543,-8.28125 l 0,-18.57422 7.30469,0 0,18.14454 c -1e-5,2.01823 0.38085,3.52214 1.14258,4.51171 0.7617,0.98959 2.00194,1.48438 3.7207,1.48438 1.67967,0 2.91339,-0.47526 3.70117,-1.42578 0.78774,-0.95052 1.18162,-2.47395 1.18164,-4.57031 l 0,-18.14454 7.30469,0 0,18.55469 c -3e-5,3.58074 -1.02542,6.33139 -3.07617,8.25196 -2.05081,1.92057 -5.08791,2.88085 -9.11133,2.88085 z"
         style="font-size:40px;font-style:normal;font-variant:normal;font-weight:bold;font-stretch:normal;line-height:125%;letter-spacing:-1.28999996px;word-spacing:0px;fill:#1e477a;fill-opacity:1;stroke:none;font-family:Tahoma;-inkscape-font-specification:Tahoma Bold"
         id="path3781"
         inkscape:connector-curvature="0" />
      <path
         d="m 182.15867,691.86414 -19.41406,0 0,-29.08204 7.30468,0 0,23.53516 12.10938,0 z"
         style="font-size:40px;font-style:normal;font-variant:normal;font-weight:bold;font-stretch:normal;line-height:125%;letter-spacing:-1.28999996px;word-spacing:0px;fill:#1e477a;fill-opacity:1;stroke:none;font-family:Tahoma;-inkscape-font-specification:Tahoma Bold"
         id="path3783"
         inkscape:connector-curvature="0" />
      <g
         id="g3825"
         style="font-size:40px;font-style:normal;font-variant:normal;font-weight:normal;font-stretch:normal;line-height:125%;letter-spacing:0px;word-spacing:0px;fill:#1e477a;fill-opacity:1;stroke:none;font-family:Arial;-inkscape-font-specification:Arial">
        <path
           sodipodi:nodetypes="ccccccccccccc"
           inkscape:connector-curvature="0"
           id="path3787"
           style="font-weight:bold;letter-spacing:-1.28999996px;fill:#1e477a;fill-opacity:1;font-family:Tahoma;-inkscape-font-specification:Tahoma Bold"
           d="m 208.36773,691.86414 0,-29.08204 19.66797,0 0,5.54688 -12.40235,0 0,6.01564 12.39454,0.0312 0,5.7715 -12.39454,-0.0312 0,6.20117 12.40235,0 0,5.54688 z" />
      </g>
      <path
         d="m 258.58164,691.86414 -8.90625,0 -8.10547,-10.66407 -2.61718,0 0,10.66407 -7.26563,0 0,-29.08204 11.69922,0 c 1.61457,3e-5 3.02082,0.10094 4.21875,0.30274 1.1979,0.20185 2.30467,0.62177 3.32031,1.25976 1.04165,0.66409 1.86847,1.50719 2.48047,2.5293 0.61195,1.02216 0.91794,2.32099 0.91797,3.89649 -3e-5,2.22658 -0.50133,4.03322 -1.50391,5.41992 -1.00262,1.38673 -2.34377,2.49025 -4.02343,3.31054 z m -11.75781,-20.17579 c -2e-5,-0.72914 -0.13999,-1.3574 -0.41992,-1.88476 -0.27997,-0.52732 -0.74546,-0.93422 -1.39649,-1.2207 -0.45574,-0.19529 -0.96355,-0.31899 -1.52343,-0.3711 -0.55991,-0.0521 -1.25653,-0.0781 -2.08985,-0.0781 l -2.4414,0 0,7.10598 2.08984,0 c 1.01561,0 1.87824,-0.0618 2.58789,-0.18555 0.70962,-0.12368 1.31183,-0.38735 1.80664,-0.79101 0.46873,-0.36457 0.81704,-0.80077 1.04492,-1.3086 0.13315,-0.34206 0.29443,-0.49315 0.3418,-1.26614 z"
         style="font-size:40px;font-style:normal;font-variant:normal;font-weight:bold;font-stretch:normal;line-height:125%;letter-spacing:-1.28999996px;word-spacing:0px;fill:#1e477a;fill-opacity:1;stroke:none;font-family:Tahoma;-inkscape-font-specification:Tahoma Bold"
         id="path3789"
         inkscape:connector-curvature="0"
         sodipodi:nodetypes="ccccccccccccsccccccsccsccccc" />
      <path
         sodipodi:nodetypes="cccccccscccccccccccccccccccccccccsc"
         id="path3903-4"
         style="font-size:40px;font-style:normal;font-variant:normal;font-weight:bold;font-stretch:normal;line-height:125%;letter-spacing:-1.28999996px;word-spacing:0px;fill:#1e477a;fill-opacity:1;stroke:none;font-family:Tahoma;-inkscape-font-specification:Tahoma Bold"
         d="m 194.49497,691.82646 -5.86915,0 -4.69726,0 0,-5.48674 0.66406,0 4.82422,0 5.11719,0 c 1.55114,0 2.24082,-0.0406 3.30078,-0.42768 0.52034,-0.19001 0.93748,-0.5306 1.28906,-0.92774 0.35155,-0.39713 0.52733,-0.92121 0.52735,-1.57226 -2e-5,-0.72916 -0.28648,-1.32161 -0.85938,-1.77735 -0.57293,-0.45572 -1.25653,-0.78775 -2.05078,-0.99609 -0.9896,-0.26041 -2.04754,-0.5078 -3.17383,-0.74219 -1.12631,-0.23436 -2.17774,-0.52082 -3.1543,-0.85937 -2.25261,-0.79426 -3.86719,-1.86197 -4.84375,-3.20313 -2.46647,-4.02263 -1.2737,-9.18587 1.99219,-11.65039 2.30468,-1.68617 5.18228,-1.5527 8.63281,-1.55273 l 5.16602,0 4.59961,0 0,5.69191 -0.64453,0 -3.95508,0 -4.79492,0 c -0.63804,3e-5 -1.21095,-0.0579 -1.71875,0.0332 -0.50783,0.0912 -1.04168,0.26695 -1.60156,0.52735 -0.45574,0.20835 -0.84962,0.5176 -1.18165,0.92773 -0.33204,0.41018 -0.49805,0.86916 -0.49804,1.37695 -1e-5,0.74221 0.26366,1.3314 0.79101,1.76758 0.52734,0.43622 1.54622,0.8301 3.05664,1.18164 0.97655,0.22137 1.91731,0.43622 2.82227,0.64453 0.90493,0.20835 1.87173,0.49481 2.90039,0.85938 2.01821,0.72918 3.51886,1.709 4.50195,2.93945 2.55112,3.95665 1.23478,8.0441 -1.93359,10.57371 -2.27215,1.75782 -5.34181,2.67239 -9.20898,2.67239 z"
         inkscape:connector-curvature="0" />
    </g>
  </g>
</svg>
